<?xml version="1.0" encoding="utf-8"?>
<!DOCTYPE svg PUBLIC "-//W3C//DTD SVG 1.1//EN" "http://www.w3.org/Graphics/SVG/1.1/DTD/svg11.dtd">
<svg version="1.1" xmlns="http://www.w3.org/2000/svg" xmlns:xlink="http://www.w3.org/1999/xlink" x="0px" y="0px" viewBox="0 0 1000 1000" enable-background="new 0 0 1000 1000" xml:space="preserve">
<g>
<path d="M875.3,19.2c-12.6-12.4-32.7-12.3-45.2,0.2L502.8,349.8l-331.9-329C158.3,8.4,138.1,8.5,125.6,21c-12.4,12.6-12.3,32.8,0.2,45.2l352.8,349.6c0.5,0.5,1.2,0.7,1.8,1.2c0.1,0.1,0.2,0.3,0.3,0.4c6.2,6.2,14.4,9.3,22.5,9.3c8.2,0,16.5-3.2,22.7-9.5L875.5,64.5C887.9,51.9,887.8,31.7,875.3,19.2L875.3,19.2z" fill="#fcd736"/>
<path d="M124.7,980.8c12.5,12.4,32.7,12.3,45.1-0.2l326.7-329.7l331.3,328.3c12.5,12.4,32.7,12.3,45.1-0.2c12.4-12.5,12.3-32.7-0.2-45.1L520.6,584.9c-0.5-0.5-1.2-0.7-1.8-1.2c-0.1-0.1-0.2-0.3-0.3-0.4c-6.2-6.2-14.4-9.3-22.5-9.3c-8.2,0-16.4,3.2-22.6,9.4L124.5,935.6C112.1,948.2,112.2,968.4,124.7,980.8L124.7,980.8z" fill="#fcd736"/></g>
</svg>