<?xml version="1.0" encoding="utf-8"?>
<!-- Svg Vector Icons : http://www.onlinewebfonts.com/icon -->
<!DOCTYPE svg PUBLIC "-//W3C//DTD SVG 1.1//EN" "http://www.w3.org/Graphics/SVG/1.1/DTD/svg11.dtd">
<svg version="1.1" xmlns="http://www.w3.org/2000/svg" xmlns:xlink="http://www.w3.org/1999/xlink" x="0px" y="0px" viewBox="0 0 1000 1000" enable-background="new 0 0 1000 1000" xml:space="preserve">

<g transform="translate(0.000000,511.000000) scale(0.100000,-0.100000)">
<path d="M3207.7,4974.7c-35.3-17.7-64-35.3-66.2-37.5c-4.4-2.2-11-664.4-17.7-1472.2l-11-1467.8l-1467.8-11c-807.8-6.6-1470-13.2-1472.2-17.7c-2.2-2.2-19.9-33.1-39.7-70.6C104.4,1840.4,100,1454.2,100-1413v-3249l64-64l64-64h3249c2867.2,0,3253.4,4.4,3310.8,33.1c37.5,19.9,68.4,37.5,70.6,39.7c4.4,2.2,11,664.4,17.7,1472.2l11,1467.8l1467.8,11c807.8,6.6,1470,13.2,1472.2,17.6c2.2,2.2,19.9,33.1,39.7,70.6c28.7,57.4,33.1,443.6,33.1,3310.8v3249l-64,64l-64,64H6518.6C3680.1,5007.8,3260.7,5003.4,3207.7,4974.7z M9524.8,1621.9v-3012.8H8200.4H6876.1V242.4V1878l-55.2,53l-53,55.2H5132.4H3499.1v1324.3v1324.3h3012.8h3012.8V1621.9z M3123.9-22.4V-1658l55.2-53l53-55.2h1635.5h1633.3v-1324.3v-1324.3H3488.1H475.2v3012.8v3012.8h1324.3h1324.3V-22.4z" fill="#fcd736"/>
</g>

</svg>