<?xml version="1.0" encoding="utf-8"?>
<!-- Svg Vector Icons : http://www.onlinewebfonts.com/icon -->
<!DOCTYPE svg PUBLIC "-//W3C//DTD SVG 1.1//EN" "http://www.w3.org/Graphics/SVG/1.1/DTD/svg11.dtd">
<svg version="1.1" xmlns="http://www.w3.org/2000/svg" xmlns:xlink="http://www.w3.org/1999/xlink" x="0px" y="0px" viewBox="0 0 1000 1000" enable-background="new 0 0 1000 1000" xml:space="preserve">
<metadata> Svg Vector Icons : http://www.onlinewebfonts.com/icon </metadata>
<g><g transform="translate(0.000000,511.000000) scale(0.100000,-0.100000)"><path d="M562.6,3469.1C390,3427,230.9,3296.6,150.3,3131.7c-65.2-138.1-65.2-379.6,0-517.7c59.4-120.8,174.5-237.7,297.2-297.2l95.9-47.9l1238.6-5.8l1236.7-5.8l69-118.9c109.3-187.9,212.8-402.6,496.6-1025.8c143.8-318.3,316.4-671.1,379.6-784.2c65.2-111.2,117-210.9,117-216.7c0-7.7-44.1-90.1-99.7-184.1c-111.2-193.6-230.1-439.1-464-962.5c-178.3-400.7-324-697.9-429.5-880.1l-69-118.9l-1236.7-5.8l-1238.6-5.8l-95.9-47.9c-122.7-59.4-237.7-174.5-297.2-297.2c-67.1-138-67.1-379.6,0-517.7c59.4-122.7,174.5-237.8,297.2-297.2l95.9-47.9l1359.4-5.8c1503.2-5.8,1489.8-5.8,1696.8,116.9c327.9,193.7,577.1,579,1037.3,1602.9c189.8,425.7,423.7,901.2,483.2,985.5l36.4,51.8h841.7h841.7l5.8-540.7c5.7-533,5.7-544.5,53.7-638.5c101.6-205.2,291.4-333.6,515.8-349c145.7-11.5,235.8,15.4,395,111.2c138.1,82.4,1733.3,1403.5,1873.2,1551.1c61.4,63.3,134.2,161,163,216.7c46,86.3,53.7,122.7,53.7,262.7c0,184.1-40.3,281.9-176.4,441c-40.3,46-431.4,381.5-868.6,745.8c-1161.9,968.3-1137,951-1399.7,951c-126.5,0-182.1-9.6-253.1-42.2c-115-51.8-243.5-180.2-302.9-302.9c-47.9-93.9-47.9-105.5-53.7-636.6l-5.8-542.6h-841.7h-843.6l-46,72.9c-76.7,122.7-285.7,548.4-471.7,964.4C4121.1,2911.2,3858.5,3281.2,3452,3436.6c-107.4,40.3-128.5,40.3-1470.6,44.1C1233.6,3480.7,595.2,3476.8,562.6,3469.1z" fill="#fcd736"/></g></g>
</svg>